<mxfile host="app.diagrams.net" modified="2021-12-25T09:14:02.683Z" agent="5.0 (Windows NT 10.0; Win64; x64) AppleWebKit/537.36 (KHTML, like Gecko) Chrome/96.0.4664.110 Safari/537.36" etag="dv_Z2u_DHhmbPb8An-dE" version="16.0.0" type="github">
  <diagram id="-BFLgqaRtH_zkLjJtSHs" name="Page-1">
    <mxGraphModel dx="1550" dy="835" grid="1" gridSize="10" guides="1" tooltips="1" connect="1" arrows="1" fold="1" page="1" pageScale="1" pageWidth="827" pageHeight="1169" math="0" shadow="0">
      <root>
        <mxCell id="0" />
        <mxCell id="1" parent="0" />
        <mxCell id="WqlqxaWTxeDNsGnpjsT1-1" value="" style="shape=cube;whiteSpace=wrap;html=1;boundedLbl=1;backgroundOutline=1;darkOpacity=0.05;darkOpacity2=0.1;size=90;rotation=-180;direction=north;fillColor=#fff2cc;strokeColor=#d6b656;" vertex="1" parent="1">
          <mxGeometry x="90" y="180" width="100" height="275" as="geometry" />
        </mxCell>
        <mxCell id="WqlqxaWTxeDNsGnpjsT1-5" value="" style="edgeStyle=orthogonalEdgeStyle;rounded=0;orthogonalLoop=1;jettySize=auto;html=1;" edge="1" parent="1">
          <mxGeometry relative="1" as="geometry">
            <mxPoint x="150" y="320" as="sourcePoint" />
            <mxPoint x="200" y="320" as="targetPoint" />
            <Array as="points" />
          </mxGeometry>
        </mxCell>
        <mxCell id="WqlqxaWTxeDNsGnpjsT1-8" value="" style="shape=cube;whiteSpace=wrap;html=1;boundedLbl=1;backgroundOutline=1;darkOpacity=0.05;darkOpacity2=0.1;size=65;rotation=-180;direction=north;fillColor=#dae8fc;strokeColor=#6c8ebf;" vertex="1" parent="1">
          <mxGeometry x="200" y="212.5" width="70" height="210" as="geometry" />
        </mxCell>
        <mxCell id="WqlqxaWTxeDNsGnpjsT1-9" value="" style="edgeStyle=orthogonalEdgeStyle;rounded=0;orthogonalLoop=1;jettySize=auto;html=1;jumpSize=6;" edge="1" parent="1">
          <mxGeometry relative="1" as="geometry">
            <mxPoint x="240" y="319.5" as="sourcePoint" />
            <mxPoint x="290" y="320" as="targetPoint" />
            <Array as="points">
              <mxPoint x="290" y="320" />
              <mxPoint x="290" y="320" />
            </Array>
          </mxGeometry>
        </mxCell>
        <mxCell id="WqlqxaWTxeDNsGnpjsT1-10" value="" style="shape=cube;whiteSpace=wrap;html=1;boundedLbl=1;backgroundOutline=1;darkOpacity=0.05;darkOpacity2=0.1;size=65;rotation=-180;direction=north;fillColor=#dae8fc;strokeColor=#6c8ebf;" vertex="1" parent="1">
          <mxGeometry x="290" y="212.5" width="70" height="210" as="geometry" />
        </mxCell>
        <mxCell id="WqlqxaWTxeDNsGnpjsT1-12" value="" style="shape=cube;whiteSpace=wrap;html=1;boundedLbl=1;backgroundOutline=1;darkOpacity=0.05;darkOpacity2=0.1;size=35;rotation=-180;direction=north;fillColor=#f8cecc;strokeColor=#b85450;" vertex="1" parent="1">
          <mxGeometry x="380" y="265" width="103.5" height="105" as="geometry" />
        </mxCell>
        <mxCell id="WqlqxaWTxeDNsGnpjsT1-23" value="" style="shape=cube;whiteSpace=wrap;html=1;boundedLbl=1;backgroundOutline=1;darkOpacity=0.05;darkOpacity2=0.1;size=35;rotation=-180;direction=north;fillColor=#f8cecc;strokeColor=#b85450;" vertex="1" parent="1">
          <mxGeometry x="600" y="265" width="103.5" height="105" as="geometry" />
        </mxCell>
        <mxCell id="WqlqxaWTxeDNsGnpjsT1-24" value="" style="shape=cube;whiteSpace=wrap;html=1;boundedLbl=1;backgroundOutline=1;darkOpacity=0.05;darkOpacity2=0.1;size=65;rotation=-180;direction=north;fillColor=#dae8fc;strokeColor=#6c8ebf;" vertex="1" parent="1">
          <mxGeometry x="510" y="212.5" width="70" height="210" as="geometry" />
        </mxCell>
        <mxCell id="WqlqxaWTxeDNsGnpjsT1-25" value="" style="shape=cube;whiteSpace=wrap;html=1;boundedLbl=1;backgroundOutline=1;darkOpacity=0.05;darkOpacity2=0.1;size=65;rotation=-180;direction=north;fillColor=#dae8fc;strokeColor=#6c8ebf;" vertex="1" parent="1">
          <mxGeometry x="730" y="212.5" width="70" height="210" as="geometry" />
        </mxCell>
        <mxCell id="WqlqxaWTxeDNsGnpjsT1-26" value="" style="shape=cube;whiteSpace=wrap;html=1;boundedLbl=1;backgroundOutline=1;darkOpacity=0.05;darkOpacity2=0.1;size=35;rotation=-180;direction=north;fillColor=#f8cecc;strokeColor=#b85450;" vertex="1" parent="1">
          <mxGeometry x="820" y="265" width="103.5" height="105" as="geometry" />
        </mxCell>
        <mxCell id="WqlqxaWTxeDNsGnpjsT1-27" value="" style="shape=cube;whiteSpace=wrap;html=1;boundedLbl=1;backgroundOutline=1;darkOpacity=0.05;darkOpacity2=0.1;size=65;rotation=-180;direction=north;fillColor=#dae8fc;strokeColor=#6c8ebf;" vertex="1" parent="1">
          <mxGeometry x="950" y="212.5" width="70" height="210" as="geometry" />
        </mxCell>
        <mxCell id="WqlqxaWTxeDNsGnpjsT1-28" value="" style="shape=cube;whiteSpace=wrap;html=1;boundedLbl=1;backgroundOutline=1;darkOpacity=0.05;darkOpacity2=0.1;size=65;rotation=-180;direction=north;fillColor=#dae8fc;strokeColor=#6c8ebf;" vertex="1" parent="1">
          <mxGeometry x="1040" y="212.5" width="70" height="210" as="geometry" />
        </mxCell>
        <mxCell id="WqlqxaWTxeDNsGnpjsT1-29" value="" style="shape=cube;whiteSpace=wrap;html=1;boundedLbl=1;backgroundOutline=1;darkOpacity=0.05;darkOpacity2=0.1;size=65;rotation=-180;direction=north;fillColor=#d5e8d4;strokeColor=#82b366;" vertex="1" parent="1">
          <mxGeometry x="1130" y="257.5" width="40" height="120" as="geometry" />
        </mxCell>
        <mxCell id="WqlqxaWTxeDNsGnpjsT1-30" value="" style="shape=cube;whiteSpace=wrap;html=1;boundedLbl=1;backgroundOutline=1;darkOpacity=0.05;darkOpacity2=0.1;size=65;rotation=-180;direction=north;fillColor=#f5f5f5;strokeColor=#666666;fontColor=#333333;" vertex="1" parent="1">
          <mxGeometry x="1190" y="270" width="30" height="95" as="geometry" />
        </mxCell>
        <mxCell id="WqlqxaWTxeDNsGnpjsT1-31" value="&lt;font style=&quot;font-size: 19px&quot;&gt;Softmax&lt;/font&gt;" style="rounded=1;whiteSpace=wrap;html=1;fillColor=#e1d5e7;strokeColor=#9673a6;" vertex="1" parent="1">
          <mxGeometry x="1240.5" y="290" width="90" height="55" as="geometry" />
        </mxCell>
        <mxCell id="WqlqxaWTxeDNsGnpjsT1-32" value="&lt;font style=&quot;font-size: 16px&quot;&gt;DWblock&lt;/font&gt;" style="text;html=1;align=center;verticalAlign=middle;resizable=0;points=[];autosize=1;strokeColor=none;fillColor=none;rotation=-45;" vertex="1" parent="1">
          <mxGeometry x="200" y="390" width="80" height="20" as="geometry" />
        </mxCell>
        <mxCell id="WqlqxaWTxeDNsGnpjsT1-41" value="" style="edgeStyle=orthogonalEdgeStyle;rounded=0;orthogonalLoop=1;jettySize=auto;html=1;jumpSize=6;" edge="1" parent="1">
          <mxGeometry relative="1" as="geometry">
            <mxPoint x="330" y="320" as="sourcePoint" />
            <mxPoint x="380" y="320" as="targetPoint" />
            <Array as="points">
              <mxPoint x="380" y="320" />
              <mxPoint x="380" y="320" />
            </Array>
          </mxGeometry>
        </mxCell>
        <mxCell id="WqlqxaWTxeDNsGnpjsT1-42" value="" style="edgeStyle=orthogonalEdgeStyle;rounded=0;orthogonalLoop=1;jettySize=auto;html=1;jumpSize=6;" edge="1" parent="1">
          <mxGeometry relative="1" as="geometry">
            <mxPoint x="470" y="320" as="sourcePoint" />
            <mxPoint x="510" y="320" as="targetPoint" />
            <Array as="points">
              <mxPoint x="510" y="320" />
              <mxPoint x="510" y="320" />
            </Array>
          </mxGeometry>
        </mxCell>
        <mxCell id="WqlqxaWTxeDNsGnpjsT1-43" value="" style="edgeStyle=orthogonalEdgeStyle;rounded=0;orthogonalLoop=1;jettySize=auto;html=1;jumpSize=6;" edge="1" parent="1">
          <mxGeometry relative="1" as="geometry">
            <mxPoint x="550" y="320" as="sourcePoint" />
            <mxPoint x="600" y="320" as="targetPoint" />
            <Array as="points">
              <mxPoint x="600" y="320" />
              <mxPoint x="600" y="320" />
            </Array>
          </mxGeometry>
        </mxCell>
        <mxCell id="WqlqxaWTxeDNsGnpjsT1-44" value="" style="edgeStyle=orthogonalEdgeStyle;rounded=0;orthogonalLoop=1;jettySize=auto;html=1;jumpSize=6;" edge="1" parent="1">
          <mxGeometry relative="1" as="geometry">
            <mxPoint x="770" y="317" as="sourcePoint" />
            <mxPoint x="820" y="317" as="targetPoint" />
            <Array as="points">
              <mxPoint x="820" y="317" />
              <mxPoint x="820" y="317" />
            </Array>
          </mxGeometry>
        </mxCell>
        <mxCell id="WqlqxaWTxeDNsGnpjsT1-45" value="" style="edgeStyle=orthogonalEdgeStyle;rounded=0;orthogonalLoop=1;jettySize=auto;html=1;jumpSize=6;" edge="1" parent="1">
          <mxGeometry relative="1" as="geometry">
            <mxPoint x="690" y="317" as="sourcePoint" />
            <mxPoint x="730" y="317" as="targetPoint" />
            <Array as="points">
              <mxPoint x="730" y="317" />
              <mxPoint x="730" y="317" />
            </Array>
          </mxGeometry>
        </mxCell>
        <mxCell id="WqlqxaWTxeDNsGnpjsT1-46" value="" style="edgeStyle=orthogonalEdgeStyle;rounded=0;orthogonalLoop=1;jettySize=auto;html=1;jumpSize=6;" edge="1" parent="1">
          <mxGeometry relative="1" as="geometry">
            <mxPoint x="910" y="317" as="sourcePoint" />
            <mxPoint x="950" y="317" as="targetPoint" />
            <Array as="points">
              <mxPoint x="950" y="317" />
              <mxPoint x="950" y="317" />
            </Array>
          </mxGeometry>
        </mxCell>
        <mxCell id="WqlqxaWTxeDNsGnpjsT1-47" value="" style="edgeStyle=orthogonalEdgeStyle;rounded=0;orthogonalLoop=1;jettySize=auto;html=1;jumpSize=6;" edge="1" parent="1">
          <mxGeometry relative="1" as="geometry">
            <mxPoint x="990" y="317" as="sourcePoint" />
            <mxPoint x="1040" y="317" as="targetPoint" />
            <Array as="points">
              <mxPoint x="1040" y="317" />
              <mxPoint x="1040" y="317" />
            </Array>
          </mxGeometry>
        </mxCell>
        <mxCell id="WqlqxaWTxeDNsGnpjsT1-49" value="" style="edgeStyle=orthogonalEdgeStyle;rounded=0;orthogonalLoop=1;jettySize=auto;html=1;jumpSize=6;" edge="1" parent="1">
          <mxGeometry relative="1" as="geometry">
            <mxPoint x="1080" y="317" as="sourcePoint" />
            <mxPoint x="1130" y="317" as="targetPoint" />
            <Array as="points">
              <mxPoint x="1130" y="317" />
              <mxPoint x="1130" y="317" />
            </Array>
          </mxGeometry>
        </mxCell>
        <mxCell id="WqlqxaWTxeDNsGnpjsT1-50" value="" style="edgeStyle=orthogonalEdgeStyle;rounded=0;orthogonalLoop=1;jettySize=auto;html=1;jumpSize=6;" edge="1" parent="1">
          <mxGeometry relative="1" as="geometry">
            <mxPoint x="1150" y="319.5" as="sourcePoint" />
            <mxPoint x="1190" y="319.5" as="targetPoint" />
            <Array as="points">
              <mxPoint x="1190" y="319.5" />
              <mxPoint x="1190" y="319.5" />
            </Array>
          </mxGeometry>
        </mxCell>
        <mxCell id="WqlqxaWTxeDNsGnpjsT1-51" value="" style="edgeStyle=orthogonalEdgeStyle;rounded=0;orthogonalLoop=1;jettySize=auto;html=1;jumpSize=6;" edge="1" parent="1">
          <mxGeometry relative="1" as="geometry">
            <mxPoint x="1210" y="320" as="sourcePoint" />
            <mxPoint x="1240" y="319.5" as="targetPoint" />
            <Array as="points">
              <mxPoint x="1240" y="319.5" />
              <mxPoint x="1240" y="319.5" />
            </Array>
          </mxGeometry>
        </mxCell>
        <mxCell id="WqlqxaWTxeDNsGnpjsT1-53" value="&lt;font style=&quot;font-size: 16px&quot;&gt;DWblock&lt;/font&gt;" style="text;html=1;align=center;verticalAlign=middle;resizable=0;points=[];autosize=1;strokeColor=none;fillColor=none;rotation=-45;" vertex="1" parent="1">
          <mxGeometry x="290" y="390" width="80" height="20" as="geometry" />
        </mxCell>
        <mxCell id="WqlqxaWTxeDNsGnpjsT1-54" value="&lt;font style=&quot;font-size: 16px&quot;&gt;DWblock&lt;/font&gt;" style="text;html=1;align=center;verticalAlign=middle;resizable=0;points=[];autosize=1;strokeColor=none;fillColor=none;rotation=-45;" vertex="1" parent="1">
          <mxGeometry x="510" y="390" width="80" height="20" as="geometry" />
        </mxCell>
        <mxCell id="WqlqxaWTxeDNsGnpjsT1-55" value="&lt;font style=&quot;font-size: 16px&quot;&gt;DWblock&lt;/font&gt;" style="text;html=1;align=center;verticalAlign=middle;resizable=0;points=[];autosize=1;strokeColor=none;fillColor=none;rotation=-45;" vertex="1" parent="1">
          <mxGeometry x="730" y="390" width="80" height="20" as="geometry" />
        </mxCell>
        <mxCell id="WqlqxaWTxeDNsGnpjsT1-56" value="&lt;font style=&quot;font-size: 16px&quot;&gt;DWblock&lt;/font&gt;" style="text;html=1;align=center;verticalAlign=middle;resizable=0;points=[];autosize=1;strokeColor=none;fillColor=none;rotation=-45;" vertex="1" parent="1">
          <mxGeometry x="950" y="390" width="80" height="20" as="geometry" />
        </mxCell>
        <mxCell id="WqlqxaWTxeDNsGnpjsT1-57" value="&lt;font style=&quot;font-size: 16px&quot;&gt;DWblock&lt;/font&gt;" style="text;html=1;align=center;verticalAlign=middle;resizable=0;points=[];autosize=1;strokeColor=none;fillColor=none;rotation=-45;" vertex="1" parent="1">
          <mxGeometry x="1040" y="390" width="80" height="20" as="geometry" />
        </mxCell>
        <mxCell id="WqlqxaWTxeDNsGnpjsT1-58" value="DenseBlock" style="text;html=1;align=center;verticalAlign=middle;resizable=0;points=[];autosize=1;strokeColor=none;fillColor=none;fontSize=16;" vertex="1" parent="1">
          <mxGeometry x="370" y="370" width="100" height="20" as="geometry" />
        </mxCell>
        <mxCell id="WqlqxaWTxeDNsGnpjsT1-59" value="DenseBlock" style="text;html=1;align=center;verticalAlign=middle;resizable=0;points=[];autosize=1;strokeColor=none;fillColor=none;fontSize=16;" vertex="1" parent="1">
          <mxGeometry x="590" y="370" width="100" height="20" as="geometry" />
        </mxCell>
        <mxCell id="WqlqxaWTxeDNsGnpjsT1-60" value="DenseBlock" style="text;html=1;align=center;verticalAlign=middle;resizable=0;points=[];autosize=1;strokeColor=none;fillColor=none;fontSize=16;" vertex="1" parent="1">
          <mxGeometry x="810" y="370" width="100" height="20" as="geometry" />
        </mxCell>
      </root>
    </mxGraphModel>
  </diagram>
</mxfile>
